# xmcd CD database file
#
# Track frame offsets:
#	150
#	16519
#	29104
#	44596
#	59614
#	69399
#	88599
#	110613
#	124827
#	136628
#	155385
#	176839
#	185933
#	197220
#	214447
#	236257
#	259410
#
# Disc length: 3636 seconds
#
# Revision: 5
# Processed by: cddbd v1.4PL0 Copyright (c) Steve Scherf et al.
# Submitted via: CDex 1.40Release
#
DISCID=010e3211
DTITLE=Arizona Smoke Revue - The Very Best Of Bluegrass
DYEAR=1998
DGENRE=Bluegrass
TTITLE0=Duelling Banjos
TTITLE1=Orange Blossom Special
TTITLE2=Earl's Breakdown
TTITLE3=Will The Circle Be Unbroken?
TTITLE4=I've Just Seen A Face
TTITLE5=Columbus Georgia
TTITLE6=Walkin' Cane
TTITLE7=The Battle Of New Orleans
TTITLE8=Foggy Mountain Breakdown
TTITLE9=The Banks Of The Ohio
TTITLE10=Old Joe Clark
TTITLE11=A Whole Lot More Jesus And A Lot Less Rock 'N' Roll
TTITLE12=Blackbird
TTITLE13=Gentle On My Mind
TTITLE14=Grandfather's Clock
TTITLE15=Reuben's Train
TTITLE16=Will The Circle Be Unbroken? (instrumental version)
EXTD=YEAR: 1998 ID3G: 89
EXTT0=
EXTT1=
EXTT2=
EXTT3=
EXTT4=
EXTT5=
EXTT6=
EXTT7=
EXTT8=
EXTT9=
EXTT10=
EXTT11=
EXTT12=
EXTT13=
EXTT14=
EXTT15=
EXTT16=
PLAYORDER=
